<svg xmlns="http://www.w3.org/2000/svg" class="icon icon-tabler icon-tabler-brand-twitter" width="24" height="24" viewBox="0 0 24 24" stroke-width="2" stroke="none" fill="none" stroke-linecap="round" stroke-linejoin="round">
	<path fill="currentColor" d="M 12 2.320312 C 15.152344 2.320312 15.527344 2.332031 16.773438 2.386719 C 17.921875 2.441406 18.546875 2.632812 18.964844 2.792969 C 19.476562 2.984375 19.941406 3.285156 20.324219 3.679688 C 20.714844 4.058594 21.015625 4.523438 21.207031 5.035156 C 21.367188 5.453125 21.558594 6.078125 21.613281 7.226562 C 21.667969 8.472656 21.679688 8.847656 21.679688 12 C 21.679688 15.152344 21.667969 15.527344 21.613281 16.773438 C 21.558594 17.921875 21.367188 18.546875 21.207031 18.964844 C 20.808594 19.996094 19.996094 20.808594 18.964844 21.207031 C 18.546875 21.367188 17.921875 21.558594 16.773438 21.613281 C 15.527344 21.667969 15.152344 21.679688 12 21.679688 C 8.847656 21.679688 8.472656 21.667969 7.226562 21.613281 C 6.078125 21.558594 5.453125 21.367188 5.035156 21.207031 C 4.523438 21.015625 4.058594 20.714844 3.675781 20.324219 C 3.285156 19.941406 2.984375 19.476562 2.792969 18.964844 C 2.632812 18.546875 2.441406 17.921875 2.386719 16.773438 C 2.332031 15.527344 2.320312 15.152344 2.320312 12 C 2.320312 8.847656 2.332031 8.472656 2.386719 7.226562 C 2.441406 6.078125 2.632812 5.453125 2.792969 5.035156 C 2.984375 4.523438 3.285156 4.058594 3.675781 3.675781 C 4.058594 3.285156 4.523438 2.984375 5.035156 2.792969 C 5.453125 2.632812 6.078125 2.441406 7.226562 2.386719 C 8.472656 2.332031 8.847656 2.320312 12 2.320312 M 12 0.191406 C 8.792969 0.191406 8.390625 0.203125 7.132812 0.261719 C 5.875 0.320312 5.015625 0.519531 4.265625 0.8125 C 3.476562 1.109375 2.761719 1.574219 2.171875 2.171875 C 1.574219 2.761719 1.109375 3.476562 0.8125 4.265625 C 0.519531 5.015625 0.320312 5.875 0.261719 7.132812 C 0.203125 8.390625 0.191406 8.792969 0.191406 12 C 0.191406 15.207031 0.203125 15.609375 0.261719 16.867188 C 0.320312 18.125 0.519531 18.984375 0.8125 19.734375 C 1.109375 20.523438 1.574219 21.238281 2.171875 21.828125 C 2.761719 22.425781 3.476562 22.890625 4.265625 23.1875 C 5.015625 23.480469 5.875 23.679688 7.132812 23.738281 C 8.390625 23.796875 8.792969 23.808594 12 23.808594 C 15.207031 23.808594 15.609375 23.796875 16.867188 23.738281 C 18.125 23.679688 18.984375 23.480469 19.734375 23.1875 C 21.320312 22.574219 22.574219 21.320312 23.1875 19.734375 C 23.480469 18.984375 23.679688 18.125 23.738281 16.867188 C 23.796875 15.609375 23.808594 15.207031 23.808594 12 C 23.808594 8.792969 23.796875 8.390625 23.738281 7.132812 C 23.679688 5.875 23.480469 5.015625 23.1875 4.265625 C 22.890625 3.476562 22.425781 2.761719 21.828125 2.171875 C 21.238281 1.574219 20.523438 1.109375 19.734375 0.8125 C 18.984375 0.519531 18.125 0.320312 16.867188 0.261719 C 15.609375 0.203125 15.207031 0.191406 12 0.191406 Z M 12 0.191406 "/>
	<path fill="currentColor" d="M 12 5.9375 C 8.652344 5.9375 5.9375 8.652344 5.9375 12 C 5.9375 15.347656 8.652344 18.0625 12 18.0625 C 15.347656 18.0625 18.0625 15.347656 18.0625 12 C 18.0625 8.652344 15.347656 5.9375 12 5.9375 Z M 12 15.9375 C 9.824219 15.9375 8.0625 14.175781 8.0625 12 C 8.0625 9.824219 9.824219 8.0625 12 8.0625 C 14.175781 8.0625 15.9375 9.824219 15.9375 12 C 15.9375 14.175781 14.175781 15.9375 12 15.9375 Z M 12 15.9375 "/>
	<path fill="currentColor" d="M 19.71875 5.695312 C 19.71875 6.480469 19.085938 7.113281 18.304688 7.113281 C 17.519531 7.113281 16.886719 6.480469 16.886719 5.695312 C 16.886719 4.914062 17.519531 4.28125 18.304688 4.28125 C 19.085938 4.28125 19.71875 4.914062 19.71875 5.695312 Z M 19.71875 5.695312 "/>
</svg>
